<?xml version="1.0" standalone="no"?>
<!DOCTYPE svg PUBLIC "-//W3C//DTD SVG 20010904//EN"
 "http://www.w3.org/TR/2001/REC-SVG-20010904/DTD/svg10.dtd">
<svg version="1.0" xmlns="http://www.w3.org/2000/svg"
 width="1600.000000pt" height="1600.000000pt" viewBox="0 0 1600.000000 1600.000000"
 preserveAspectRatio="xMidYMid meet">
<metadata>
Created by potrace 1.15, written by Peter Selinger 2001-2017
</metadata>
<g transform="translate(0.000000,1600.000000) scale(0.100000,-0.100000)"
fill="#000000" stroke="none">
<path d="M8183 14343 c-13 -2 -23 -8 -23 -13 0 -4 -18 -11 -40 -15 -22 -4 -40
-11 -40 -16 0 -5 -8 -9 -17 -9 -10 0 -31 -7 -47 -15 -15 -8 -34 -15 -41 -15
-8 0 -20 -6 -27 -12 -7 -7 -36 -24 -63 -38 -28 -14 -51 -28 -53 -32 -2 -5 -9
-8 -15 -8 -12 0 -120 -71 -125 -82 -2 -5 -10 -8 -18 -8 -8 0 -17 -7 -20 -15
-4 -8 -12 -15 -20 -15 -8 0 -22 -9 -31 -20 -10 -11 -22 -20 -28 -20 -5 0 -30
-22 -53 -48 -24 -26 -61 -66 -83 -89 -21 -23 -39 -46 -39 -51 0 -6 -27 -13
-60 -17 -33 -4 -60 -10 -60 -14 0 -4 -93 -11 -207 -15 -114 -3 -209 -10 -212
-15 -4 -4 -28 -11 -55 -15 -28 -3 -52 -10 -56 -15 -3 -5 -18 -13 -33 -16 -15
-4 -27 -11 -27 -15 0 -4 -16 -10 -35 -13 -19 -3 -42 -12 -49 -19 -8 -7 -45
-33 -81 -58 -66 -44 -110 -84 -170 -154 -22 -25 -41 -36 -70 -40 -48 -8 -60
-29 -71 -121 -3 -33 -10 -64 -14 -70 -4 -5 -10 -26 -13 -45 -22 -130 -31 -176
-38 -180 -3 -3 -10 -33 -14 -68 -4 -34 -11 -64 -15 -67 -4 -3 -11 -36 -15 -75
-4 -38 -11 -70 -15 -70 -4 0 -11 -20 -14 -45 -4 -25 -11 -45 -17 -45 -5 0 -9
-10 -9 -22 -1 -13 -7 -34 -15 -48 -8 -14 -14 -35 -15 -47 0 -13 -4 -23 -9 -23
-5 0 -12 -18 -16 -41 -7 -41 -31 -71 -105 -133 -45 -37 -148 -136 -179 -171
l-23 -28 34 -32 c20 -17 49 -37 66 -44 l31 -13 118 122 c65 68 130 145 145
171 14 27 38 62 51 79 38 45 58 110 128 435 11 50 29 135 40 190 34 171 41
195 53 195 22 0 45 34 66 95 25 73 35 85 72 85 24 0 45 15 106 79 71 73 155
137 227 173 50 26 180 47 377 63 209 16 233 20 266 46 12 9 42 21 65 24 54 9
79 28 147 109 59 71 215 189 355 268 82 47 168 88 182 88 4 0 23 9 41 20 28
17 32 23 22 35 -10 12 -10 18 0 30 11 13 7 15 -31 14 -24 -1 -54 -4 -66 -6z"/>
<path d="M8835 14330 c-3 -5 -43 -10 -88 -10 -70 -1 -80 -3 -64 -14 22 -17 22
-36 0 -36 -15 0 -15 -2 -3 -14 23 -21 122 -29 146 -11 10 8 39 15 64 16 25 0
56 5 70 9 19 6 9 8 -37 9 -61 1 -88 13 -57 25 9 3 28 6 44 6 42 0 90 11 90 21
0 12 -157 11 -165 -1z"/>
<path d="M9480 13855 c-14 -8 -38 -14 -55 -15 -16 0 -43 -7 -60 -16 -42 -22
-293 -31 -395 -14 -114 20 -254 24 -282 9 -13 -7 -48 -16 -78 -20 -52 -6 -103
-21 -142 -40 -11 -6 -25 -5 -35 0 -117 63 -269 89 -331 57 -17 -9 -46 -16 -65
-16 -21 0 -41 -7 -52 -20 -10 -11 -28 -20 -41 -20 -12 0 -24 -3 -26 -7 -1 -5
-37 -30 -78 -58 -41 -27 -141 -106 -221 -175 -80 -70 -161 -132 -180 -140 -19
-7 -41 -19 -49 -26 -8 -6 -31 -14 -50 -17 -19 -2 -50 -11 -67 -18 -28 -11 -38
-11 -65 0 -52 21 -105 25 -131 9 -12 -8 -44 -17 -70 -20 -26 -3 -56 -13 -66
-22 -10 -9 -30 -16 -45 -16 -14 0 -29 -7 -32 -15 -4 -8 -12 -15 -20 -15 -14 0
-99 -55 -137 -88 -10 -9 -39 -47 -64 -85 -43 -64 -46 -67 -63 -52 -34 31 -46
10 -85 -140 -24 -91 -40 -190 -55 -325 -4 -41 -13 -88 -18 -105 -19 -54 -42
-137 -42 -151 0 -20 -50 -121 -66 -135 -8 -6 -14 -16 -14 -21 0 -18 -73 -104
-191 -225 -65 -67 -119 -127 -119 -134 0 -21 111 -139 179 -191 91 -68 101
-104 37 -133 -17 -8 -51 -26 -75 -40 -24 -14 -50 -25 -56 -25 -7 0 -18 -7 -25
-15 -7 -8 -23 -15 -35 -15 -13 0 -25 -7 -29 -15 -3 -8 -14 -15 -24 -15 -11 0
-25 -7 -32 -15 -7 -8 -20 -15 -30 -15 -10 0 -20 -7 -24 -15 -3 -8 -15 -15 -26
-15 -11 0 -20 -4 -20 -9 0 -5 -10 -13 -22 -17 -13 -4 -39 -20 -59 -35 -20 -16
-39 -29 -42 -29 -7 0 -61 -36 -106 -71 -199 -152 -595 -524 -686 -644 -27 -36
-71 -92 -97 -124 -53 -65 -57 -84 -28 -140 24 -48 63 -79 218 -171 94 -56 136
-88 176 -134 46 -54 98 -130 119 -176 4 -8 19 -35 33 -60 14 -25 47 -83 72
-130 60 -113 70 -130 92 -165 10 -16 29 -49 41 -73 13 -23 54 -75 91 -115 38
-39 71 -81 74 -92 5 -22 -51 -191 -67 -201 -5 -3 -9 -17 -9 -32 0 -15 -7 -39
-14 -54 -8 -15 -18 -53 -22 -85 -4 -32 -13 -72 -20 -90 -37 -87 -6 -163 58
-141 16 6 32 8 35 4 3 -3 10 -45 14 -93 17 -200 37 -272 95 -348 14 -19 35
-35 45 -35 11 0 48 35 91 87 104 123 198 213 224 213 6 0 17 7 24 15 7 8 22
15 34 15 12 0 31 7 42 15 23 17 100 20 110 4 4 -8 24 -9 58 -5 161 21 160 21
236 71 41 28 80 54 86 60 6 5 22 17 34 25 12 8 50 35 84 60 34 25 86 63 116
83 142 97 266 192 313 238 7 8 35 32 62 54 27 22 58 49 71 60 12 11 50 45 85
75 35 30 102 92 149 137 l85 82 3 -80 3 -80 -73 -81 c-87 -98 -107 -118 -112
-118 -15 0 -232 -153 -336 -237 -8 -7 -44 -36 -80 -64 -36 -28 -81 -65 -100
-81 -19 -16 -39 -32 -45 -36 -211 -159 -287 -229 -457 -417 -51 -56 -125 -162
-150 -215 -51 -108 -71 -229 -56 -335 6 -44 16 -83 22 -87 6 -4 23 -8 39 -8
l27 0 -17 -27 c-38 -59 -58 -73 -148 -99 -169 -48 -334 -145 -453 -265 -110
-111 -235 -316 -262 -428 -12 -51 -20 -63 -63 -94 -18 -13 -18 -15 2 -58 18
-37 31 -50 78 -73 170 -83 389 -109 740 -86 105 7 199 10 207 7 14 -6 13 -11
-5 -42 -19 -31 -19 -36 -5 -41 9 -4 32 -4 51 -1 33 5 35 4 41 -28 7 -39 90 88
-957 -1465 -683 -1012 -889 -1334 -1151 -1795 -206 -363 -416 -780 -439 -871
-13 -52 -57 -88 -97 -81 -22 4 -23 2 -17 -32 9 -48 15 -54 109 -107 71 -41 84
-45 109 -36 19 7 27 7 25 0 -2 -5 -53 -59 -113 -118 -60 -60 -107 -111 -105
-113 9 -7 820 479 855 513 42 40 438 602 536 760 135 217 135 214 -3 81 -104
-100 -125 -113 -77 -47 140 191 400 581 580 871 92 148 399 655 399 659 0 2
25 46 56 97 64 107 195 332 232 399 14 25 28 50 32 55 4 6 30 51 58 100 58
105 65 118 166 293 42 74 76 136 76 138 0 2 11 21 23 42 13 20 35 57 49 82 14
25 61 108 105 185 44 77 89 156 100 175 11 19 59 103 107 186 l87 151 152 7
c84 3 176 9 205 12 l52 7 0 -210 c0 -115 3 -271 7 -346 l6 -137 38 0 c21 0 40
4 43 9 3 5 53 12 111 16 58 4 107 10 110 15 3 4 54 11 115 15 61 4 112 11 115
15 3 4 81 11 175 15 93 4 170 11 170 15 0 4 66 10 147 14 81 4 152 11 158 16
5 4 47 11 93 15 45 4 82 11 82 15 0 4 39 11 87 15 48 4 94 11 102 16 9 5 75
13 146 19 72 6 168 14 215 18 47 5 89 5 93 1 5 -3 13 -37 20 -75 6 -38 14 -71
18 -74 4 -3 10 -38 14 -77 4 -40 11 -73 15 -73 4 0 11 -34 15 -75 4 -41 10
-75 15 -75 4 0 11 -34 15 -75 4 -41 10 -75 15 -75 4 0 11 -31 14 -70 4 -38 11
-72 17 -75 5 -4 9 -24 9 -46 0 -21 4 -39 9 -39 5 0 12 -34 16 -75 4 -41 11
-75 15 -75 5 0 11 -34 15 -75 4 -41 11 -75 15 -75 4 0 11 -33 15 -72 4 -40 10
-77 14 -83 3 -5 11 -39 18 -75 7 -36 16 -85 21 -110 5 -25 16 -75 23 -113 8
-40 19 -67 26 -67 7 0 13 -3 13 -7 0 -5 25 -19 55 -33 30 -14 55 -28 55 -32 0
-3 14 -9 30 -13 17 -4 30 -10 30 -15 0 -4 12 -11 27 -15 15 -3 30 -10 33 -14
3 -4 57 -33 120 -64 63 -32 135 -69 160 -82 25 -14 50 -25 57 -25 7 0 13 -4
13 -9 0 -5 12 -12 27 -16 15 -3 30 -10 33 -13 3 -4 25 -18 50 -30 44 -23 49
-24 304 -20 196 2 260 6 264 16 2 6 17 12 33 12 16 0 29 5 29 10 0 6 -24 10
-52 10 -62 0 -52 11 32 36 61 18 84 38 129 117 17 30 38 60 45 66 15 13 91
164 121 241 9 25 20 83 22 130 5 90 2 111 -81 475 -87 383 -156 733 -191 960
-9 61 -21 137 -27 170 -5 33 -12 174 -15 313 -6 253 -6 253 17 274 12 11 28
35 35 52 8 17 39 56 71 86 31 30 84 93 117 140 57 80 148 244 160 289 10 40
83 56 159 35 12 -4 19 2 24 20 3 14 10 26 15 26 5 0 9 14 9 31 0 46 -45 85
-106 95 -27 4 -51 11 -55 15 -3 5 -65 12 -137 15 -73 4 -135 11 -138 16 -3 4
-13 8 -23 8 -16 0 -18 7 -13 70 l5 70 -34 0 c-19 0 -45 3 -57 7 -21 5 -23 10
-18 42 3 20 12 86 21 146 9 61 23 153 30 205 8 52 17 113 20 135 3 22 12 85
20 140 8 55 22 147 30 205 9 58 20 132 26 165 5 33 14 92 19 130 9 74 32 239
55 395 8 52 17 113 20 135 13 93 36 244 46 300 5 33 14 92 19 130 11 87 34
246 55 390 9 61 20 142 25 180 5 39 14 99 20 135 6 36 15 90 20 120 5 30 12
80 15 110 3 30 10 87 16 125 5 39 14 131 20 205 6 74 17 200 24 280 8 80 21
224 30 320 8 96 18 195 20 220 25 237 26 272 11 565 -8 165 -12 303 -10 307 3
4 11 5 19 1 9 -3 15 1 15 11 0 18 15 22 25 6 14 -23 25 -7 25 35 0 49 -6 57
-140 175 -35 30 -78 70 -97 88 -31 30 -83 44 -83 23 0 -5 -14 -12 -30 -16 -32
-7 -51 2 -99 44 -13 11 -28 21 -33 21 -5 0 -19 10 -31 23 -12 12 -39 34 -59
47 -21 14 -38 28 -38 33 0 4 -4 7 -9 7 -9 0 -105 60 -128 80 -7 5 -14 10 -17
10 -2 0 -28 16 -57 35 -30 19 -57 35 -62 35 -5 0 -16 7 -24 16 -14 14 -21 11
-72 -39 -31 -30 -74 -71 -96 -92 -22 -20 -98 -94 -170 -164 -187 -182 -164
-168 -223 -132 -27 17 -54 31 -61 31 -6 0 -11 4 -11 9 0 10 -30 29 -80 51 -13
6 -27 15 -30 19 -3 4 -25 17 -50 30 -25 12 -58 31 -75 42 -16 10 -37 21 -45
25 -8 3 -22 10 -30 15 -8 5 -22 12 -30 15 -8 4 -43 20 -78 35 -35 16 -66 29
-68 29 -3 0 -24 8 -47 18 -23 10 -62 27 -87 37 -25 10 -59 24 -77 31 -17 8
-37 14 -45 14 -8 0 -19 5 -25 11 -6 6 -37 15 -69 19 -33 4 -97 13 -144 19 -47
7 -114 18 -150 27 -36 8 -85 14 -110 14 -49 0 -76 12 -66 28 3 6 2 13 -4 17
-17 11 -11 24 15 31 14 3 25 9 25 13 0 4 12 12 28 19 48 22 68 36 147 107 117
105 136 127 123 142 -14 17 -57 16 -88 -2z m-2897 -1107 c4 -26 2 -71 -4 -100
-6 -29 -17 -96 -25 -148 -23 -153 -25 -163 -46 -210 -23 -49 -86 -122 -100
-114 -12 8 -10 48 4 62 32 32 71 195 98 407 16 127 20 143 37 161 20 20 28 8
36 -58z m4552 -48 l49 -50 -39 -40 -38 -39 25 -158 c25 -153 26 -165 17 -403
-14 -401 -71 -1043 -130 -1460 -5 -41 -14 -113 -19 -160 -24 -219 -33 -280
-40 -280 -9 0 -140 144 -140 154 0 4 -16 20 -35 37 -19 17 -35 37 -35 44 0 7
-13 25 -30 38 -16 14 -30 29 -30 33 0 4 -20 31 -45 60 -25 28 -45 56 -45 60 0
6 -45 65 -100 131 -5 7 -10 15 -10 19 0 3 -13 23 -30 44 -16 21 -30 41 -30 45
0 4 -13 24 -30 45 -16 21 -30 42 -30 48 0 5 -7 12 -15 16 -8 3 -15 10 -15 16
0 6 -11 26 -25 44 -14 18 -25 38 -25 43 0 6 -6 16 -14 22 -8 7 -22 27 -31 46
-9 19 -20 35 -25 35 -4 0 -11 14 -15 30 -4 17 -11 30 -16 30 -5 0 -14 10 -19
23 -6 12 -23 45 -40 72 -16 28 -33 58 -36 68 -3 9 -10 17 -14 17 -5 0 -11 14
-15 30 -4 17 -10 30 -15 30 -16 0 -22 59 -8 75 18 20 27 32 68 90 19 28 38 55
42 60 5 6 38 51 75 100 36 50 76 104 90 120 32 41 29 37 118 155 43 58 84 110
90 117 5 6 21 26 35 44 39 51 232 293 244 305 6 6 49 55 96 109 97 113 167
185 178 185 4 0 30 -22 57 -50z m-3887 -782 c7 -9 1 -35 -19 -88 -16 -41 -29
-84 -29 -95 0 -23 -26 -65 -40 -65 -5 0 -49 -19 -97 -42 -72 -34 -99 -42 -148
-42 -65 -1 -115 23 -115 53 0 9 30 38 68 65 37 27 99 73 139 103 72 53 195
123 218 123 7 0 17 -6 23 -12z m-1793 -1080 c-26 -29 -59 -61 -74 -73 -50 -37
-331 -315 -331 -327 0 -4 -7 -8 -15 -8 -8 0 -15 5 -15 11 0 12 62 84 165 193
108 115 119 125 180 171 28 21 55 44 60 50 6 7 19 17 30 23 44 25 44 9 0 -40z
m4858 -115 c6 -32 -3 -94 -32 -213 -11 -47 -25 -110 -30 -140 -10 -52 -38
-195 -61 -305 -40 -197 -102 -613 -135 -908 -53 -483 -68 -778 -69 -1352 -2
-573 3 -533 -79 -614 l-46 -44 -148 6 c-136 5 -325 20 -593 47 -264 26 -325
31 -475 46 -88 8 -252 17 -363 21 -150 4 -205 9 -209 19 -2 6 6 28 19 48 l23
36 80 0 c73 0 259 -14 760 -55 405 -34 601 -45 732 -43 l138 3 -4 480 c-2 291
1 555 8 670 27 445 41 626 60 785 35 291 43 351 52 405 5 33 14 92 19 130 10
73 29 191 54 335 8 47 19 110 25 140 14 81 49 208 68 244 9 17 41 69 72 116
64 97 75 116 92 148 17 30 36 28 42 -5z m-500 -785 c-4 -34 -22 -104 -43 -157
-35 -93 -68 -148 -449 -743 -300 -469 -727 -1138 -813 -1273 -89 -141 -107
-162 -165 -203 -32 -23 -93 -30 -93 -12 0 20 39 87 189 320 82 129 205 321
271 425 67 105 207 323 311 485 104 162 208 327 232 365 25 39 81 126 125 195
44 69 118 184 163 255 46 72 106 166 134 210 29 44 68 106 88 138 20 31 41 57
46 57 5 0 7 -27 4 -62z m-2849 -69 c65 -38 39 -79 -50 -79 -34 0 -62 -8 -101
-30 -43 -24 -64 -30 -114 -30 -51 0 -68 -5 -106 -30 -24 -16 -51 -30 -59 -30
-7 0 -14 -7 -14 -15 0 -8 5 -15 12 -15 21 0 157 41 185 55 15 8 44 15 63 15
39 1 135 31 153 49 14 14 64 15 72 1 11 -17 -12 -45 -57 -67 -78 -39 -116 -53
-143 -53 -14 0 -34 -4 -43 -9 -26 -14 -258 -52 -276 -45 -20 8 -20 20 0 28 22
8 7 28 -19 24 -16 -2 -22 2 -22 17 0 21 116 115 141 115 8 0 14 3 14 8 0 9
127 73 190 95 65 23 132 21 174 -4z m1162 -316 c-3 -10 -15 -53 -27 -97 -11
-43 -31 -98 -44 -122 -52 -98 -376 -454 -425 -467 -25 -7 -16 16 30 73 20 25
68 85 106 134 38 48 76 96 85 105 8 9 71 100 140 203 114 173 149 217 135 171z
m1894 -3006 c0 -2 14 -95 30 -207 65 -438 153 -877 232 -1150 16 -58 36 -125
42 -150 7 -25 29 -92 49 -149 20 -56 33 -109 31 -116 -5 -13 -63 -45 -81 -45
-22 0 -131 289 -193 510 -27 94 -83 321 -105 420 -9 41 -20 93 -25 115 -24
108 -62 311 -85 455 -9 58 -21 127 -26 153 -5 26 -9 75 -9 107 l0 60 70 0 c39
0 70 -1 70 -3z"/>
<path d="M3580 1269 c-116 -108 -210 -200 -210 -204 0 -8 38 -6 42 3 2 4 25
18 53 32 27 14 56 31 63 38 7 6 20 12 28 12 8 0 14 5 14 10 0 6 7 10 15 10 9
0 15 9 15 23 0 13 11 46 25 73 14 27 25 50 25 52 0 10 -23 -6 -70 -49z"/>
</g>
</svg>
